<svg width="149" height="40" viewBox="0 0 149 40" fill="none" xmlns="http://www.w3.org/2000/svg">
<path d="M9.19998 31.8C7.30664 31.8 5.51998 31.5866 3.83998 31.16C2.18664 30.7333 0.906642 30.2 -2.44379e-05 29.56L2.39998 25.04C3.33331 25.6533 4.46664 26.1466 5.79998 26.52C7.15998 26.8933 8.51998 27.08 9.87998 27.08C11.3466 27.08 12.4133 26.8933 13.08 26.52C13.7466 26.1466 14.08 25.64 14.08 25C14.08 24.4933 13.8 24.12 13.24 23.88C12.68 23.6133 11.9733 23.4 11.12 23.24C10.2666 23.08 9.34664 22.8933 8.35998 22.68C7.39998 22.4666 6.47998 22.1733 5.59998 21.8C4.74664 21.4 4.03998 20.84 3.47998 20.12C2.94664 19.3733 2.67998 18.4 2.67998 17.2C2.67998 15.5733 3.13331 14.2 4.03998 13.08C4.97331 11.96 6.25331 11.1066 7.87998 10.52C9.53331 9.93331 11.4 9.63998 13.48 9.63998C14.9733 9.63998 16.4266 9.79998 17.84 10.12C19.2533 10.44 20.4533 10.88 21.44 11.44L19.2 16C18.1866 15.36 17.12 14.9333 16 14.72C14.9066 14.48 13.8533 14.36 12.84 14.36C11.3733 14.36 10.3066 14.5733 9.63998 15C8.99998 15.4 8.67998 15.8933 8.67998 16.48C8.67998 16.9866 8.94664 17.3866 9.47998 17.68C10.04 17.9466 10.7466 18.1733 11.6 18.36C12.4533 18.52 13.3733 18.7066 14.36 18.92C15.3466 19.1066 16.2666 19.4 17.12 19.8C17.9733 20.1733 18.6666 20.72 19.2 21.44C19.76 22.1333 20.04 23.08 20.04 24.28C20.04 25.9066 19.56 27.2933 18.6 28.44C17.6666 29.56 16.3866 30.4 14.76 30.96C13.1333 31.52 11.28 31.8 9.19998 31.8ZM22.61 31.48L26.89 9.95998H33.09L28.81 31.48H22.61ZM31.05 6.95998C29.9566 6.95998 29.0766 6.65331 28.41 6.03998C27.7433 5.39998 27.41 4.62665 27.41 3.71998C27.41 2.65331 27.7833 1.77331 28.53 1.07998C29.3033 0.359978 30.3033 -2.19345e-05 31.53 -2.19345e-05C32.6233 -2.19345e-05 33.5033 0.306645 34.17 0.919978C34.8633 1.50665 35.21 2.23998 35.21 3.11998C35.21 4.26665 34.8233 5.19998 34.05 5.91998C33.3033 6.61331 32.3033 6.95998 31.05 6.95998ZM51.4022 9.63998C53.2422 9.63998 54.8022 10.0266 56.0822 10.8C57.3622 11.5466 58.2688 12.6533 58.8022 14.12C59.3355 15.5866 59.3888 17.4 58.9622 19.56L56.5622 31.48H50.3222L52.6422 19.96C52.9622 18.3866 52.8288 17.1733 52.2422 16.32C51.6822 15.4666 50.6422 15.04 49.1222 15.04C47.5488 15.04 46.2288 15.4933 45.1622 16.4C44.1222 17.3066 43.4022 18.6933 43.0022 20.56L40.8422 31.48H34.6022L38.8822 9.95998H44.8022L43.5622 16.04L42.6822 14.2C43.7222 12.6266 45.0022 11.48 46.5222 10.76C48.0688 10.0133 49.6955 9.63998 51.4022 9.63998ZM71.4965 39.56C69.4165 39.56 67.4965 39.32 65.7365 38.84C64.0032 38.36 62.5099 37.6533 61.2565 36.72L64.2165 32.2C65.0699 32.8933 66.1632 33.4533 67.4965 33.88C68.8565 34.3066 70.2832 34.52 71.7765 34.52C73.9365 34.52 75.5499 34.0533 76.6165 33.12C77.7099 32.1866 78.4432 30.8 78.8165 28.96L79.5765 25.08L81.0165 20.04L81.9765 14.6L82.8565 9.95998H88.8165L85.2565 27.88C84.4299 32.0133 82.8565 34.9866 80.5365 36.8C78.2432 38.64 75.2299 39.56 71.4965 39.56ZM72.4165 30.44C70.6565 30.44 69.0565 30.08 67.6165 29.36C66.1765 28.64 65.0299 27.6133 64.1765 26.28C63.3232 24.92 62.8965 23.2933 62.8965 21.4C62.8965 19.7466 63.1899 18.2133 63.7765 16.8C64.3899 15.3866 65.2299 14.1466 66.2965 13.08C67.3899 11.9866 68.6565 11.1466 70.0965 10.56C71.5632 9.94665 73.1632 9.63998 74.8965 9.63998C76.4699 9.63998 77.8965 9.93331 79.1765 10.52C80.4565 11.1066 81.4432 12.0533 82.1365 13.36C82.8565 14.6666 83.1232 16.4133 82.9365 18.6C82.7765 20.9733 82.2565 23.0533 81.3765 24.84C80.4965 26.6 79.2965 27.9733 77.7765 28.96C76.2832 29.9466 74.4965 30.44 72.4165 30.44ZM74.0965 25.32C75.3232 25.32 76.4032 25.0533 77.3365 24.52C78.2699 23.9866 79.0032 23.2533 79.5365 22.32C80.0699 21.36 80.3365 20.2666 80.3365 19.04C80.3365 17.7333 79.9099 16.7066 79.0565 15.96C78.2032 15.1866 77.0165 14.8 75.4965 14.8C74.2699 14.8 73.1765 15.0666 72.2165 15.6C71.2832 16.1333 70.5365 16.88 69.9765 17.84C69.4432 18.7733 69.1765 19.8533 69.1765 21.08C69.1765 22.3866 69.6165 23.4266 70.4965 24.2C71.3765 24.9466 72.5765 25.32 74.0965 25.32ZM90.3444 31.48L96.2644 1.79998H102.504L96.5844 31.48H90.3444ZM113.816 31.8C111.576 31.8 109.629 31.4 107.976 30.6C106.349 29.8 105.082 28.68 104.176 27.24C103.269 25.8 102.816 24.1066 102.816 22.16C102.816 19.76 103.349 17.6266 104.416 15.76C105.509 13.8666 107.002 12.3733 108.896 11.28C110.816 10.1866 113.016 9.63998 115.496 9.63998C117.602 9.63998 119.416 10.04 120.936 10.84C122.456 11.6133 123.629 12.7066 124.456 14.12C125.309 15.5066 125.736 17.1733 125.736 19.12C125.736 19.68 125.696 20.24 125.616 20.8C125.562 21.36 125.482 21.8933 125.376 22.4H107.576L108.216 18.76H122.456L119.896 19.88C120.109 18.68 120.042 17.68 119.696 16.88C119.349 16.0533 118.789 15.4266 118.016 15C117.242 14.5466 116.309 14.32 115.216 14.32C113.856 14.32 112.696 14.6533 111.736 15.32C110.802 15.96 110.096 16.8533 109.616 18C109.136 19.1466 108.896 20.44 108.896 21.88C108.896 23.5333 109.349 24.7733 110.256 25.6C111.189 26.4 112.589 26.8 114.456 26.8C115.549 26.8 116.602 26.6266 117.616 26.28C118.629 25.9333 119.496 25.44 120.216 24.8L122.816 28.92C121.562 29.9066 120.149 30.64 118.576 31.12C117.029 31.5733 115.442 31.8 113.816 31.8ZM133.494 21.76C133.681 20.7466 134.014 19.88 134.494 19.16C134.974 18.44 135.521 17.8 136.134 17.24C136.774 16.68 137.427 16.16 138.094 15.68C138.761 15.2 139.374 14.7333 139.934 14.28C140.494 13.8266 140.947 13.3466 141.294 12.84C141.641 12.3066 141.814 11.68 141.814 10.96C141.814 10.1333 141.481 9.47998 140.814 8.99998C140.147 8.49331 139.187 8.23998 137.934 8.23998C136.627 8.23998 135.441 8.50665 134.374 9.03998C133.334 9.57331 132.427 10.32 131.654 11.28L127.454 8.19998C128.654 6.59998 130.267 5.33331 132.294 4.39998C134.321 3.46665 136.627 2.99998 139.214 2.99998C141.107 2.99998 142.747 3.27998 144.134 3.83998C145.521 4.37331 146.587 5.14665 147.334 6.15998C148.107 7.17331 148.494 8.35998 148.494 9.71998C148.494 10.8666 148.294 11.8666 147.894 12.72C147.521 13.5733 147.027 14.3066 146.414 14.92C145.801 15.5333 145.134 16.1066 144.414 16.64C143.694 17.1466 142.987 17.6533 142.294 18.16C141.627 18.64 141.041 19.1733 140.534 19.76C140.054 20.32 139.721 20.9866 139.534 21.76H133.494ZM135.054 31.8C133.987 31.8 133.107 31.48 132.414 30.84C131.721 30.1733 131.374 29.3733 131.374 28.44C131.374 27.32 131.761 26.4 132.534 25.68C133.334 24.96 134.294 24.6 135.414 24.6C136.481 24.6 137.347 24.92 138.014 25.56C138.707 26.1733 139.054 26.9466 139.054 27.88C139.054 28.6 138.867 29.2666 138.494 29.88C138.147 30.4666 137.667 30.9333 137.054 31.28C136.467 31.6266 135.801 31.8 135.054 31.8Z" fill="#DAF1DD"/>
</svg>
